<?xml version="1.0" encoding="utf-8"?>
<!-- Generator: Adobe Illustrator 27.4.1, SVG Export Plug-In . SVG Version: 6.00 Build 0)  -->
<svg xmlns="http://www.w3.org/2000/svg" xmlns:xlink="http://www.w3.org/1999/xlink" version="1.1" id="Capa_1" x="0px" y="0px" style="enable-background:new 0 0 1000 800;" xml:space="preserve" viewBox="10 28.01 980 743.98">
<title>Grand Theft Auto VI logo</title>
<style type="text/css">
	
		.st0{clip-path:url(#SVGID_00000097487940525801255610000010189204427885772971_);fill:url(#SVGID_00000021079588890789356160000017576338957985942658_);}
	
		.st1{clip-path:url(#SVGID_00000088844800139591244070000010020829746589525938_);fill:url(#SVGID_00000006701805251262277520000012598879435261304465_);}
	
		.st2{clip-path:url(#SVGID_00000137827389282705942250000014688726812118990772_);fill:url(#SVGID_00000016754964405070353800000004170314414622520477_);}
	.st3{filter:url(#Adobe_OpacityMaskFilter);}
	
		.st4{clip-path:url(#SVGID_00000145041402407237559410000007088200554041627009_);fill:url(#SVGID_00000127740099876176266180000015305052547840317105_);}
	
		.st5{clip-path:url(#SVGID_00000145041402407237559410000007088200554041627009_);mask:url(#SVGID_00000060030666716632588380000003341272058095144092_);fill:url(#SVGID_00000096738587089865295360000000124934111076444604_);}
	
		.st6{clip-path:url(#SVGID_00000148620062701764144630000000046964475974026900_);fill:url(#SVGID_00000147912441865063375850000009959526291889804990_);}
	
		.st7{clip-path:url(#SVGID_00000163031821190847116780000013501978700425503422_);fill:url(#SVGID_00000083053353772842647480000008419699595706930057_);}
	.st8{fill-rule:evenodd;clip-rule:evenodd;fill:#1D0030;}
	.st9{fill-rule:evenodd;clip-rule:evenodd;fill:#FF2B90;}
	.st10{fill:#FFFFFF;}
	.st11{fill-rule:evenodd;clip-rule:evenodd;fill:#FFFFFF;}
</style>
<g>
	<defs>
		<path id="SVGID_1_" d="M954.37445,63.63692H755.95789v672.72601h198.41656V63.63692z M738.14526,28.01145H990v743.97705H720.3327    V42.93183L571.03625,352.14615L368.7681,771.07098L10,28.01145h274.16174l84.60669,171.97447l84.60669-171.97447H720.3327h7.20367    H738.14526z M368.76843,689.33337L670.87073,63.63692H475.45245L368.7681,280.48663L262.08429,63.63692H66.66634    L368.76843,689.33337z"/>
	</defs>
	<clipPath id="SVGID_00000155130864425621506400000011246359472498530727_">
		<use xlink:href="#SVGID_1_" style="overflow:visible;"/>
	</clipPath>
	
		<linearGradient id="SVGID_00000015327975038571381660000009895725336551574442_" gradientUnits="userSpaceOnUse" x1="500" y1="28.01145" x2="500" y2="771.98853">
		<stop offset="0" style="stop-color:#350054"/>
		<stop offset="1" style="stop-color:#6D016D"/>
	</linearGradient>
	
		<rect x="10" y="28.01145" style="clip-path:url(#SVGID_00000155130864425621506400000011246359472498530727_);fill:url(#SVGID_00000015327975038571381660000009895725336551574442_);" width="980" height="743.97711"/>
</g>
<g>
	<defs>
		<polygon id="SVGID_00000032645392918268761040000011977638184012716684_" points="368.76843,730.20215 555.03296,344.42249     699.20367,45.82433 464.41391,45.82433 368.76843,240.23631 273.12277,45.82433 38.33322,45.82433 182.5041,344.42249   "/>
	</defs>
	<clipPath id="SVGID_00000065069507012881491440000005846513068063525785_">
		<use xlink:href="#SVGID_00000032645392918268761040000011977638184012716684_" style="overflow:visible;"/>
	</clipPath>
	
		<linearGradient id="SVGID_00000086673160546572941400000003101887695976692904_" gradientUnits="userSpaceOnUse" x1="368.76843" y1="730.20215" x2="368.76843" y2="45.82433">
		<stop offset="0" style="stop-color:#E6953E"/>
		<stop offset="0.5" style="stop-color:#FF4CB9"/>
		<stop offset="1" style="stop-color:#2B60DA"/>
	</linearGradient>
	
		<rect x="38.33322" y="45.82433" style="clip-path:url(#SVGID_00000065069507012881491440000005846513068063525785_);fill:url(#SVGID_00000086673160546572941400000003101887695976692904_);" width="660.87042" height="684.37781"/>
</g>
<g>
	<defs>
		
			<rect id="SVGID_00000073684341689665879260000002493633541776414870_" x="738.14526" y="45.82433" width="234.04211" height="708.3515"/>
	</defs>
	<clipPath id="SVGID_00000109719146958530594960000004349924573323276443_">
		<use xlink:href="#SVGID_00000073684341689665879260000002493633541776414870_" style="overflow:visible;"/>
	</clipPath>
	
		<linearGradient id="SVGID_00000091012915291273429000000012876425826711723961_" gradientUnits="userSpaceOnUse" x1="855.16632" y1="754.17584" x2="855.16632" y2="45.82433">
		<stop offset="0" style="stop-color:#E6953E"/>
		<stop offset="0.5" style="stop-color:#FF4CB9"/>
		<stop offset="1" style="stop-color:#2B60DA"/>
	</linearGradient>
	
		<rect x="738.14526" y="45.82433" style="clip-path:url(#SVGID_00000109719146958530594960000004349924573323276443_);fill:url(#SVGID_00000091012915291273429000000012876425826711723961_);" width="234.04211" height="708.3515"/>
</g>
<g>
	<defs>
		<path id="SVGID_00000128453615970210169270000005729495952343833232_" d="M309.11041,365.25156    c-2.77405-10.64252-4.90482-21.64163-6.65155-32.85358c1.4462,15.19324,1.20779,30.30597,0.85016,45.41333    C305.21909,373.61954,307.15274,369.43311,309.11041,365.25156 M316.41913,326.69397l-1.40457,26.1102    c2.46951-5.1398,4.97382-10.27197,7.51425-15.39667L316.41913,326.69397z M496.8952,287.5947l71.53436,8.17679l-48.51636-51.46317    l22.16339,38.61734l-24.04498-20.45657l7.94531,19.62161l-42.44525-34.65125l29.69055,39.03476l-34.91776-26.71918    L496.8952,287.5947z M469.29813,284.4408l27.2879,3.11856l-47.76306-33.43994L469.29813,284.4408z M430.10822,279.96082    l5.05212,0.57782l-9.75546-17.65213L430.10822,279.96082z M381.09662,293.85492l9.23499,12.05368l-3.25766-12.74472    L381.09662,293.85492z M317.79199,301.1727l-0.02924,0.54593l1.08804-0.6683L317.79199,301.1727z M295.60001,299.55423    c6.24075-0.34723,12.50394-0.62717,18.78635-0.85104l11.70065-27.88452    C314.23026,279.70105,304.42108,289.42426,295.60001,299.55423z M273.00375,301.12997    c5.68729-0.48224,11.39716-0.89816,17.12726-1.25433c4.64752-12.49448,12.29651-23.76874,21.31976-34.48425    C297.52179,275.30328,284.94208,287.64026,273.00375,301.12997z M255.52057,302.84082    c4.55896-0.50845,9.13422-0.96802,13.72485-1.38226c5.80231-12.19882,10.80725-24.22034,15.02383-36.06717    C273.43207,277.58569,264.00253,290.1041,255.52057,302.84082z M235.85625,305.36737    c4.68797-0.68585,9.39499-1.3118,14.12114-1.88309c1.15704-6.17007,3.15163-12.43832,6.6922-18.88837    C248.59842,291.21127,241.91164,298.20346,235.85625,305.36737z M866.18256,257.56531    c0.71313,9.43857,1.63104,19.1546,2.71686,29.09839l-4.935-10.44476C864.76337,270.0062,866.02136,263.83258,866.18256,257.56531z     M813.91779,242.54335c-5.24493-5.29848-10.46594-10.57281-15.5451-15.87427c11.13074,5.75989,22.26135,9.91031,33.39203,10.93251    C826.94159,240.72311,820.96252,242.21959,813.91779,242.54335z M835.79663,265.11935    c-3.16547-3.40787-6.38678-6.77884-9.63483-10.12509c4.35944,2.39493,8.93219,4.34052,13.54822,6.19537    C838.92578,263.33099,837.578,264.57184,835.79663,265.11935z M857.87372,291.34012    c1.35095-0.15387,2.78809-0.26367,4.27527-0.34561c-3.66577-6.39001-8.59528-11.16214-15.37201-13.56973    C850.64746,281.96832,854.36713,286.5975,857.87372,291.34012z M915.01654,225.03293    c3.77075-5.50537,7.78601-10.90494,12.04974-16.18294c-13.3288,5.46616-24.53333,12.67862-34.22766,21.13324    C900.55341,227.76901,908.04431,225.9263,915.01654,225.03293z M904.47327,241.78632    c2.30408-3.99774,4.72687-7.95164,7.27094-11.85605c-7.2652,4.38387-13.9342,8.76746-20.36926,13.1516    C896.01123,242.40457,900.61993,241.75272,904.47327,241.78632z M897.02246,255.68851    c1.34814-2.713,2.74866-5.40953,4.20081-8.08815c-6.35016,3.84528-11.93573,8.19891-17.37549,12.65028    C888.3363,258.45349,892.74359,256.88821,897.02246,255.68851z M882.80402,290.51706    c3.33209-10.25204,7.33618-20.3801,12.02643-30.30466c-13.73682,6.88913-16.32422,10.46942-18.83868,30.37918    C878.39734,290.53214,880.69574,290.48883,882.80402,290.51706z M923.61755,280.48947    c5.18616-2.21979,10.58093-4.35559,16.17609-6.41183c-8.91284-1.41785-18.64752-3.97153-29.24445-7.71771    C915.57721,271.01422,919.92035,275.72501,923.61755,280.48947z M895.505,294.58234    c6.57062-3.88483,13.65942-7.56247,21.23865-11.04459c-4.888-2.38351-10.21252-5.2395-16.02167-8.61942l-13.17023,15.84531    c0.98083,0.10397,1.88019,0.24628,2.68158,0.43643C892.79498,291.8074,894.36218,292.90408,895.505,294.58234z     M926.71918,312.64804c-8.4071-1.62082-17.2821-2.6745-26.84631-2.89258c-0.24982-1.74478-0.55585-3.45633-0.90204-5.07935    C908.33679,302.55356,917.76385,297.95267,926.71918,312.64804z M817.70172,484.3855    c-6.88617,9.78198-11.61945,20.72861-11.81342,34.12946C809.37494,507.07437,813.24017,495.68741,817.70172,484.3855z     M874.56714,428.91006c-14.09033-12.92398-19.60944-28.92856-19.75909-46.86258    C860.94153,398.12115,867.31738,413.95102,874.56714,428.91006z M848.51984,315.01962l-1.93073,9.87921    c1.23474-2.17538,2.47601-4.3013,3.72522-6.36017c-0.49005-0.76718-0.91522-1.57162-1.30664-2.4115    C848.83875,315.76434,848.67621,315.39462,848.51984,315.01962z M832.17059,310.72821    c4.91956-0.26364,9.83948-0.44861,14.75934-0.54791c-0.72449-2.90274-1.07751-5.84686-1.00616-8.40387    c0.05011-1.78934,0.30792-3.38828,0.91272-4.76535l-2.88159-0.64487L832.17059,310.72821z M813.10175,312.11844    c4.71918-0.43033,9.4386-0.79999,14.15839-1.10126l-1.07776-9.01465L813.10175,312.11844z M804.77454,312.93927    c2.19312-0.23184,4.3858-0.45187,6.57892-0.65863l0.19232-13.82703L804.77454,312.93927z M778.58765,316.22903    c1.60144-0.23035,3.20361-0.45563,4.80524-0.67599l2.85327-16.68164L778.58765,316.22903z M790.63708,175.38538    l-19.26105-21.49089l16.19641,7.08234l-0.3548-1.66832l-20.96332-21.80086l8.57214,3.96642l-6.27258-18.16075l13.93872,13.78049    L776.565,109.2256c-1.74628-4.4873-2.64526-8.97523-3.13617-13.46344c4.85089,9.00635,9.92322,15.8029,15.05438,22.02213    c-8.37433-24.13783-8.42285-41.68421-0.6275-53.02013c1.96503,16.75803,4.72614,32.85356,8.36371,48.21911    c0.35455-15.97536,4.23682-30.92374,17.98157-43.00092c-4.58655,16.55122-6.77411,32.36483-7.73627,47.80194    c4.78595-12.31504,10.33551-23.59088,18.19061-31.72861c-1.29285,8.72604-3.02802,17.78307-5.43622,27.34502    c3.28235-3.31582,6.89294-8.02336,11.29095-16.07299c0,16.45544-2.92725,34.37273-4.39069,51.5592    c7.90875-9.69292,11.25922-20.5735,12.75446-31.93723c14.32245,28.77104,0.73181,57.75139-1.2547,70.34552    c6.12048-7.7915,10.67944-18.9213,14.84564-30.89394c3.23193,14.78362,2.41296,31.13989-1.88226,48.84531    c2.94843-2.39478,6.11285-6.58018,9.61841-13.56786c2.20178,14.79039,2.90533,29.53326-3.55463,44.04456    c2.16022-1.13269,4.32092-3.11246,6.48187-6.26253c0.66125,8.067,0.73279,16.35526-0.83655,25.25761l3.31732-5.38165    c-3.85822-60.56487,1.44739-108.71565,25.97504-130.82126c-2.36035,5.28886-3.49371,10.71422-3.34528,16.28181    c6.40863-17.95877,15.05756-30.60815,25.92712-37.99085c-3.88605,4.9248-6.42853,10.24381-7.94525,15.86437    c12.27545-14.3013,24.79285-27.76122,39.30872-34.23374c-1.92334,2.36608-3.23425,4.73133-4.18195,7.0974    c9.7572-7.5275,19.51508-12.16472,29.27258-15.23824c-6.96393,4.68079-13.59863,9.72044-19.02728,16.0732    c7.84296-4.40952,15.01776-5.81873,21.7453-5.21874c-12.09412,6.15141-23.03333,13.40017-32.19958,22.33551    c6.22711-2.90466,11.89368-4.60956,17.14526-5.4275c-7.70703,4.24349-13.27209,9.32394-17.77246,14.8208    c13.1192-3.13873,22.21802-3.12469,29.48157-1.66991c-19.00757,5.57278-37.65845,12.09502-54.99066,22.12649    c21.61078-4.67125,41.67944-8.20473,56.8725-8.14084c-10.40204,2.96254-20.47552,6.22041-29.48187,10.43701    c5.06152,0.24954,11.45404-0.38667,18.19092-1.25247c-12.17053,3.93303-23.65576,8.17361-33.03619,13.35973    c14.30969-0.86455,25.76593,0.02994,35.33618,2.08707c-12.02954,3.36775-24.44092,6.35345-34.29059,11.89824    c12.26337-1.38737,23.35223-1.4651,33.24524-0.20883c-22.69574,7.1781-43.79559,15.01877-63.1452,23.58804    c16.18921-4.10278,32.66467-7.45517,50.39093-7.51498c-16.62927,6.02431-32.57867,12.7605-46.41815,21.70932    c10.69012-4.1523,21.23407-7.55219,30.94537-6.67996c-14.05341,6.62512-26.51074,14.11115-37.2182,22.54433    c10.84644-3.66452,21.45532-6.19843,31.86194-7.77553c12.38086-15.09822,26.80829-29.1786,43.34814-41.84914l0.20917,70.972    l-11.08148-4.27917c3.1792,4.592,7.27502,9.18489,12.12683,13.77724c-9.73376,0.44185-21.00287-0.54536-33.2453-2.60962    c6.4549,5.04575,17.86877,8.38396,32.409,10.64584c-3.32758,9.31972-16.74548,11.34581-44.32678,3.13112    c4.02765,5.40054,10.11652,10.31137,17.94647,14.80835c8.66504-3.02518,17.78046-5.87018,27.3197-8.5466l-0.41815,65.75366    c-6.83026-7.13763-13.66095-16.24066-20.49084-27.55377c2.37604,7.2243,5.5318,14.16544,9.22046,20.91324    c2.62054,0.94385,5.2243,1.90887,7.81909,2.88412l-1.25464,147.16205l-12.75439-65.96201l-8.78149,71.18085L934.59161,377.4108    l-1.04565,76.60812l-23.62817-70.76718l-1.61847,10.17694c22.66669,62.00845,44.90253,124.25607,63.36615,188.59641v94.35089    c-22.71735-78.2583-46.5636-156.29132-71.12201-234.18234l-0.5498,3.45517c3.48535,13.19308,5.58136,26.03885,5.84631,38.42722    c-5.30005-12.05054-10.93903-21.90662-17.35431-26.71887c6.80847,20.43631,12.07928,41.69897,15.26367,64.08365    c-8.72845-21.70132-17.89447-42.31424-27.18188-62.62244c8.2569,29.40997,15.78918,59.06104,22.37262,89.02777    c-10.53369-18.82257-21.87445-37.46695-34.91815-55.73358c14.5351,30.17804,26.2373,60.59027,34.08179,91.32422    c-5.14081-12.47534-12.91144-24.33307-22.79089-35.69464c8.75079,17.72241,15.08783,35.64545,20.49103,53.64661    c-11.90125-20.75262-26.78015-38.39117-44.53638-53.02032c19.80371,28.04602,34.21033,57.67725,44.53638,88.50629    l-35.3363-37.36493l25.50873,54.69037l-13.38159-13.77716c6.90704,15.52374,12.5376,31.79083,16.09973,49.263    c-8.78156-8.34967-15.99536-16.59485-26.3454-25.04883c6.69971,13.70715,11.35333,27.414,15.26379,41.12183l-18.40002-27.13654    c5.41425,12.98529,9.22186,26.32697,12.12726,39.86975c-12.98529-17.03711-27.78662-32.50378-44.95398-45.92291    c0.97778,10.37885-0.48907,19.81915-3.1366,28.80615c0.11694-13.80573-0.74512-27.17731-3.13623-39.86938    c-4.14886,5.81573-7.42316,13.59406-10.45471,21.91779c-1.67255-23.72705-2.72046-47.4541-1.88153-71.18085    c-5.03748,8.34375-9.18176,17.67871-11.70911,28.80646c-2.41046-26.51935-2.1908-52.4549,0.41809-77.86053    c-3.17212-29.59259-0.10364-57.93964,10.66376-84.74887l-0.44507,0.55579c-0.24414,1.36777-0.91302,2.59164-1.86743,3.53287    c-0.54944,0.54083-1.19275,0.98822-1.90271,1.31732c-9.15314,12.07999-17.33038,25.134-24.84821,38.84735    c9.10565-42.19135,26.59741-104.62338,48.19885-155.82617l-4.61932-16.86176l-3.39856,20.54617l0.06934-0.02951l-0.16376,0.60052    l-0.27075,1.63556l-0.20074,0.08282c-4.03381,14.64816-8.51917,29.1752-16.51007,42.76907l1.04565-23.58771    c-3.96539,12.82562-8.92346,22.67532-14.00946,32.14606c1.98309-11.07925,2.33893-21.34583,2.09137-31.3111    c-5.85144,16.22464-12.27039,30.32458-19.23651,42.37436c3.00262-15.58618,4.73315-31.17203,5.22742-46.75787l0.85162-0.36392    l-3.16797-24.11884c-6.29047,28.30334-14.68799,53.87183-26.55438,74.93787l4.80872-50.72388l-15.47247,25.04919l1.2547-90.38538    c8.43536-1.5116,16.87097-2.9664,25.3064-4.31802l5.76416-26.35941l-20.28156,23.3793l12.63873-33.71619l-23.00891,28.28079    l-0.41815-49.26266l32.89209,1.2225l1.35388-2.81662l-31.94592-13.85275l12.12708-5.42715l-11.70905-3.75732l12.96375-12.10706    l-14.21844-2.92229l-2.50873-56.36031l31.78156,45.50578l-4.18188-31.72888l30.10974,43.98999    c8.62384-1.0065,17.40405-1.88834,22.01569-6.09969c-7.65405-3.28145-12.78046-7.42772-16.38934-12.09357l-13.68152-10.5571    l8.53113,1.48817c-0.21686-0.52725-0.42493-1.05727-0.62402-1.59059l-0.26202-1.23125l-17.5766-18.07915l14.34851,2.90245    L790.63708,175.38538z M194.77805,318.62152l-19.86372-0.20905c18.99284-5.55084,38.46449-9.64673,58.29933-12.65097    c6.27562-13.64655,13.18533-27.02866,22.20123-39.53519c-13.38179,13.01193-28.43587,23.93588-42.65398,35.90366    c4.01006-13.08279,13.51796-26.02148,28.12216-38.82559c-16.26027,13.60312-31.76163,23.27383-46.6272,29.64111    c15.40891-12.26077,28.67482-27.19122,39.62245-45.29701c-16.23901,15.53987-32.47833,29.98216-48.71776,38.826    c17.66814-17.63849,32.82724-40.91307,49.24023-61.37c-22.72057,19.2738-44.91899,40.42621-67.63989,59.7001    c6.06058-18.3306,13.66318-36.22035,23.62721-53.43793c-15.44717,11.83205-29.29756,26.01974-41.81812,42.16556    c3.545-11.63327,7.95235-23.0873,14.84528-34.02458c-8.55901,5.78201-14.93262,14.94679-20.69968,25.04912    c-3.23775-11.20135-1.22319-20.31848,7.10912-26.92786c-8.20488,1.59184-14.52264,5.77504-20.49101,10.43701    c5.54965-11.55519,12.91943-22.74748,24.04527-33.18976c-10.20059,4.40157-19.14207,10.41939-27.39053,17.32559    c-0.80154-8.21136,1.29005-14.47154,5.64561-19.20418c-4.44485,0.5966-7.9623,1.69971-10.87285,3.13106l-3.3456-9.18456    c3.83185-4.51814,8.64375-8.14601,14.00909-11.27196l-11.91817,5.63564l-28.85404-49.05399    c64.95947-9.34035,139.73862,15.18576,223.09834,69.30215c9.06866-2.36394,21.82977-2.87451,26.13593-9.81075    c-11.50775-0.07268-22.15604-0.62212-31.15405-2.08755c7.94986-3.23352,14.0383-6.9735,18.92181-11.04233    c-12.91174,3.09296-23.81787,2.7529-32.82681-0.83459c5.5004-2.69246,10.07736-5.6781,14.32315-8.78862    c-8.10843,0.81566-15.24066,2.45576-21.53622,4.80138c1.63751-4.08847,4.56491-7.53206,8.99051-10.22859    c-9.72235-3.58307-23.41776-1.53093-35.1268-2.29617c4.2785-2.52602,9.38013-4.6411,16.72714-5.63564    c-12.7196-1.82674-25.54401,2.60919-38.47243,1.2524c7.44366-4.7034,13.25539-9.76906,18.19066-15.02936    c-13.38869,0.64134-27.35403,2.79169-41.85832,6.35504c10.86026-8.11615,23.35997-15.75063,36.59097-23.17026    c-15.12408,3.64752-30.20796,8.01569-45.33205,14.31001l3.76341-6.67961c-5.1237,1.83391-10.21091,3.39145-15.05432,3.13098    c4.38255-4.1821,7.18672-8.2718,9.19966-12.3156c-8.85129,2.52151-17.70279,5.33858-26.55399,9.3933    c5.0948-6.3502,12.74692-11.94926,22.58144-16.908c-15.95575,2.78787-31.29848,7.92676-45.58148,17.11676    c11.18652-15.82986,28.22682-22.47429,38.89056-35.90344c-19.58459,3.23554-38.96062,25.46643-58.12679,26.30139    c10.71481-7.43665,18.90608-14.62048,24.04527-21.50029c-16.23003,11.05104-32.11362,19.68427-47.50712,24.8905    c12.9625-11.67529,24.74282-23.11459,34.91781-34.2334c-19.82193,13.37231-43.19733,22.67212-69.9881,28.25154    c5.38811-3.14674,8.21346-7.53905,13.41306-10.71291c12.34393-7.53358,25.95696-14.0077,31.75031-22.47678    c-20.14084,5.01131-34.73404,14.55016-47.89435,25.13549l-3.13624-12.10691c16.07076-19.07412,36.96962-31.8595,65.8641-34.23374    l-34.70914-6.67976c21.46725-9.1508,46.836-10.05318,77.78162,0.83509c-7.81073-5.82047-17.452-11.40182-31.67723-16.38616    c21.13359-3.79977,42.46364,1.81221,63.87683,11.3763c-4.24193-6.15915-11.1384-11.08381-21.74628-14.80932    c18.45529-0.27327,35.17125,5.71854,48.8868,23.25911c-1.91406-8.5105-7.28448-16.06303-14.21721-23.18201    c31.80695,9.74339,43.17365,25.55978,51.47604,42.286c1.31247-2.46994,1.75409-5.46194,1.67285-8.76711    c11.27289,9.66533,21.62515,19.69796,30.10907,30.47649l59.38113,124.82668    c10.14487-10.83876,20.24368-22.27191,30.10873-36.73827c1.95154,3.06171,3.1712,6.43629,5.85474,9.18497    c-0.15295-10.09183,0.1474-19.83205,2.50906-27.97163c2.87381,5.52873,6.04837,10.3362,9.61801,14.19434    c0.63116-30.0984,10.38153-56.73819,33.03595-78.48637c-1.53757,8.26317-2.12939,15.38422-2.09052,21.70863    c8.59677-19.37587,19.28009-35.03716,34.29056-43.0005c-10.79547,12.71555-15.13278,26.87552-15.05438,42.37492    c12.06039-24.19267,27.66199-46.36409,51.43594-63.87514c-2.95453,5.36679-5.40961,10.84512-7.10913,16.4905    c9.47168-4.79688,19.94055-8.42262,31.78156-10.43701c-9.94147,5.70057-18.21661,12.52947-24.25439,20.87402    c17.56348-5.28796,36.17249-14.02029,52.69031-15.8643c-14.35742,6.98131-24.95483,15.00556-34.29065,23.37888    c14.2746-6.25768,34.70648-12.04884,48.40442-11.58479c-3.89874,2.27432-7.28735,4.71861-9.93188,7.41002    c10.34583,1.86614,18.78723,6.20472,26.34528,11.68982c-12.96313-1.4021-25.92749-1.94034-38.8905,0    c9.49115,6.99991,18.10858,14.29163,25.09045,22.12648c-7.66559-2.61569-15.33331-5.90317-22.99957-5.8448    c2.75989,2.92949,5.04608,5.97743,6.69092,9.18462c-9.06061-4.73645-18.12134-8.95338-27.18146-12.57677    c8.42529,5.84868,15.96814,12.10408,22.58142,18.78702c-16.92462-7.16884-34.09375-12.54117-51.43616-16.64726l45.99963,24.63141    c-14.49658-1.82631-29.82996-7.51498-44.74493-11.27231l25.09064,14.19434l-43.4903-5.42696    c10.45975,5.5647,19.7879,11.55235,28.0177,17.95172c-15.01962-3.8945-27.91565-5.98697-40.14496-7.51471l28.43591,16.69926    l-18.39966-2.9223l5.43622,4.59219l-15.47247,3.33981l-23.41806-2.50485l38.89053,14.19447l-18.81781,0.83495l3.34534,5.84502    l-33.87244,0.41743l10.87271,4.59235c49.06595-0.41759,72.4147-41.12225,147.19876-1.25275l-10.45435,23.79639l-8.36383-7.93179    l5.85437,16.6989l-4.59991,9.18483l-6.90009-11.06348l3.97253,15.23837l-6.69061,18.78668l-38.47278-40.91351l31.36346,52.3945    l-45.79645,98.10938l16.72717-44.87958l-6.06378-6.67975l2.09131,9.60205l-15.89099,43.83585l-24.04523-51.14175l5.2269,71.80676    l-33.03595-90.59341l6.27283,67.84067l-22.3728-53.64621l0.62738,32.146l-26.97269-63.45709l3.34558,33.39844l-23.20911-34.85999    l2.92722,26.71915l-19.02716-37.57367l-3.38446,13.362l37.26077,48.63364l-13.38211-5.00977l30.52707,46.96725l-12.96341-8.35001    l18.19101,42.16595l-20.28189-16.07306l19.02719,82.45248l-15.47281-29.64117l3.13654,52.39392l-9.40909-11.48041    l-11.70908,45.50537l2.50919-13.77716l-20.90909,49.6803l0.83655-22.75281l-29.27286,70.34589l-1.67239-33.1897    l-15.05441,40.91321l1.04535-50.30688l-11.50006,16.2821l7.52716-26.71881l-7.10898,7.30591l24.88147-57.40387l-25.09052,34.65118    l13.59091-45.08789l-22.37253,26.3009l19.44498-42.79172l-17.35431,22.33517l36.59085-65.54486l-35.33615,48.63684    l15.26367-41.33096l-14.63651,13.77731l31.99091-69.92844c-12.45413,17.33963-23.51346,35.60861-34.29095,54.06409    c6.68259-20.31741,12.62399-40.63501,16.51816-60.95245c-6.81943,6.16324-11.931,13.17926-16.51816,20.45679    c1.73538-12.71936,4.95523-25.34045,10.87253-37.78238c-5.02194,3.3692-9.9621,7.55585-14.84506,12.31573    c9.42001-18.04901,20.75238-34.90591,32.40878-51.5592c-9.38013,9.63062-18.42926,20.35965-26.9725,32.77289l4.35376-25.08578    c-27.37454,56.34772-47.92914,118.93619-65.61813,184.14572l-22.58157-49.88864    c12.22995-36.28207,26.26794-72.17767,42.01593-107.70724c-4.09863-16.83533-5.4144-37.18826-10.85928-51.77045    c1.82639,36.70935-1.68597,65.99438-15.47244,80.9913c2.03052-17.11707,3.40634-34.23318,3.76376-51.35016    c-3.27377,21.18488-10.10791,37.12332-19.23634,49.68018c3.07982-20.40451,5.21446-40.89484,5.22725-61.57843    c-8.83104,30.8194-18.62636,59.7811-31.36342,83.07907c1.37704-15.85275,3.21812-31.80856,7.1091-48.21906    c-5.73172,10.44724-11.69307,19.05502-17.98163,25.04886c1.5258-14.75443,4.04958-29.08179,7.52727-43.00092    c-4.86403,7.74911-8.86578,16.18646-12.33635,25.04892l-42.02681-75.35532L194.77805,318.62152z"/>
	</defs>
	<clipPath id="SVGID_00000127738951789558104900000000999834621042054027_">
		<use xlink:href="#SVGID_00000128453615970210169270000005729495952343833232_" style="overflow:visible;"/>
	</clipPath>
	<defs>
		
			<filter id="Adobe_OpacityMaskFilter" filterUnits="userSpaceOnUse" x="72.04345" y="60.46957" width="901.29449" height="658.02258">
			<feColorMatrix type="matrix" values="1 0 0 0 0  0 1 0 0 0  0 0 1 0 0  0 0 0 1 0"/>
		</filter>
	</defs>
	
		<mask maskUnits="userSpaceOnUse" x="72.04345" y="60.46957" width="901.29449" height="658.02258" id="SVGID_00000156586133676251194730000006474746111563290016_">
		<g class="st3">
			
				<linearGradient id="SVGID_00000084525109539204390610000009630030526592187274_" gradientUnits="userSpaceOnUse" x1="333.70291" y1="551.94751" x2="333.70291" y2="952.73627" gradientTransform="matrix(1 0 0 1 188.98779 -285.61011)">
				<stop offset="0" style="stop-color:#FFFFFF"/>
				<stop offset="1" style="stop-color:#000000"/>
			</linearGradient>
			
				<rect x="72.04345" y="60.82733" style="clip-path:url(#SVGID_00000127738951789558104900000000999834621042054027_);fill:url(#SVGID_00000084525109539204390610000009630030526592187274_);" width="901.29449" height="657.66486"/>
		</g>
	</mask>
	
		<linearGradient id="SVGID_00000059309742721136502770000005599730653034453902_" gradientUnits="userSpaceOnUse" x1="522.69067" y1="60.46957" x2="522.69067" y2="718.49219">
		<stop offset="0" style="stop-color:#2E49BF"/>
		<stop offset="0.49" style="stop-color:#C045B6"/>
		<stop offset="1" style="stop-color:#DF7B4D"/>
	</linearGradient>
</g>
<g>
	<defs>
		<path id="SVGID_00000040550677991128517700000011902727857822705570_" d="M560.03406,346.83612L368.7681,742.97388    C255.67601,508.73306,142.58101,274.49371,29.47875,40.2577h247.09377l92.19592,187.39984l92.1958-187.39984h247.09351    L560.03406,346.83612z M368.76843,717.43054L690.34949,51.39067h-222.4856L368.7681,252.81468L269.67322,51.39067H47.18735    L368.76843,717.43054z"/>
	</defs>
	<clipPath id="SVGID_00000176759377595798775690000015317877839487032499_">
		<use xlink:href="#SVGID_00000040550677991128517700000011902727857822705570_" style="overflow:visible;"/>
	</clipPath>
	
		<linearGradient id="SVGID_00000148640857132662001670000011115719499344320442_" gradientUnits="userSpaceOnUse" x1="368.76825" y1="40.2577" x2="368.76825" y2="742.97388">
		<stop offset="0" style="stop-color:#FFBC24"/>
		<stop offset="0.29" style="stop-color:#FF49B9"/>
		<stop offset="0.75" style="stop-color:#BC0082"/>
		<stop offset="0.94" style="stop-color:#8B0179"/>
		<stop offset="1" style="stop-color:#6D016D"/>
	</linearGradient>
	
		<rect x="29.47875" y="40.2577" style="clip-path:url(#SVGID_00000176759377595798775690000015317877839487032499_);fill:url(#SVGID_00000148640857132662001670000011115719499344320442_);" width="678.57898" height="702.71619"/>
</g>
<g>
	<defs>
		<path id="SVGID_00000083078338454103247500000013965094812776400813_" d="M966.62073,51.39067H743.71191v697.21857h222.90881    V51.39067z M738.14526,40.2577h239.6084v719.48444H732.57898V40.2577H738.14526z"/>
	</defs>
	<clipPath id="SVGID_00000179637003871384046130000016655883919677643948_">
		<use xlink:href="#SVGID_00000083078338454103247500000013965094812776400813_" style="overflow:visible;"/>
	</clipPath>
	
		<linearGradient id="SVGID_00000031201958078016473780000012088482542189780391_" gradientUnits="userSpaceOnUse" x1="855.16632" y1="40.2577" x2="855.16632" y2="759.74213">
		<stop offset="0" style="stop-color:#FFBC24"/>
		<stop offset="0.29" style="stop-color:#FF49B9"/>
		<stop offset="0.75" style="stop-color:#BC0082"/>
		<stop offset="0.94" style="stop-color:#8B0179"/>
		<stop offset="1" style="stop-color:#6D016D"/>
	</linearGradient>
	
		<rect x="732.57898" y="40.2577" style="clip-path:url(#SVGID_00000179637003871384046130000016655883919677643948_);fill:url(#SVGID_00000031201958078016473780000012088482542189780391_);" width="245.17468" height="719.48444"/>
</g>
<path class="st8" d="M919.23175,439.3046l-0.00189,0.39734c-0.10596,8.63324-3.1629,15.30322-9.16974,20.0069  c-5.29822,4.1492-12.49103,6.22504-21.5755,6.22504c-0.64539,0-0.78717-0.00162-0.71674-0.00421h-52.88287  c-20.95667,0-31.43353-8.88846-31.43353-26.6655V408.4483h-48.68176v50.95547c9.04541,0.11566,16.19885,2.24091,21.45593,6.37396  c6.16528,4.84702,9.24811,11.7113,9.24811,20.59207v105.96765c0,8.81268-3.1098,15.62598-9.32904,20.4389  c-5.40405,4.18188-12.79224,6.27313-22.16248,6.27313h-53.10168c-9.36945,0-16.75696-2.091-22.16077-6.27313  c-1.67291-1.29456-3.12018-2.73383-4.34314-4.31805c-1.24213,1.63751-2.71997,3.12024-4.43439,4.44708  c-5.38409,4.16687-12.77222,6.20154-22.16235,6.10455v0.03955h-53.10132c-9.36993,0-16.75739-2.091-22.16125-6.27313  c-3.75885-2.90918-6.38129-6.54932-7.8681-10.91974c-1.48724,4.37073-4.10962,8.01086-7.86859,10.91974  c-5.40417,4.18213-12.79193,6.27313-22.16278,6.27313H375.3157c-9.37082,0-16.75885-2.091-22.16272-6.27313  c-6.21918-4.81262-9.3288-11.62555-9.3288-20.4389c0-39.49078,0-70.0033,0-105.96765c0-8.88043,3.08231-15.74506,9.24756-20.59207  c5.40829-4.25247,12.82373-6.37943,22.24396-6.37943h6.62231c-5.34735-4.44363-8.02246-11.15414-8.02246-20.13416v-63.69952  h-10.53943v-42.9841c-3.19437,0.71609-6.72723,1.0744-10.59949,1.0744h-84.38702c0-56.63571,0-109.85941,0-170.76924  c0-8.86571,3.07812-15.71909,9.23276-20.55836c5.39896-4.24509,12.79926-6.36783,22.19897-6.36783h158.86469  c9.40042,0,16.80051,2.12274,22.20007,6.36783c1.64651,1.29416,3.07205,2.73297,4.27792,4.31514  c1.20621-1.58217,2.63202-3.02098,4.2782-4.31514c5.39935-4.24452,12.79962-6.36783,22.19937-6.36783h158.86591  c3.45551,0,6.85028,0.52849,10.18439,1.58609c3.14166,0.99614,6.26221,2.51517,9.35986,4.55563l0.16193,0.0809  c2.3562,1.6105,4.36359,3.39354,6.02234,5.34854c1.29443-1.88953,2.88727-3.58957,4.77844-5.09961  c5.18738-4.14171,12.35681-6.28369,21.50507-6.42474c2.0069-0.0305-0.52441-0.04681,0.9436-0.04681h21.26581v-35.3883h63.12122  v192.17392h-84.38702c-9.03015,0-16.20471-1.87805-21.5224-5.63156v5.63156H543.07465v13.6879h21.14032  c9.39911,0,16.79938,2.12241,22.1991,6.36713c1.64612,1.29431,3.07166,2.73264,4.27765,4.31458  c1.20605-1.58221,2.63196-3.0206,4.27814-4.31476c5.39935-4.2449,12.79962-6.36694,22.19934-6.36694h52.95532  c9.40027,0,16.80066,2.12204,22.20032,6.36694c1.66699,1.31018,3.10767,2.76886,4.32349,4.37451  c1.19592-1.5527,2.60663-2.96765,4.23199-4.24548c5.32867-4.1886,12.68915-6.34158,22.07861-6.45587l0.12103-0.0401  l143.49469-0.04495v12.08701h52.69763v120.78909L919.23175,439.3046z"/>
<path class="st9" d="M921.23126,440.14481c-0.10187,4.43173-0.95068,8.3891-2.54565,11.86954  c-1.66449,3.63113-4.12799,6.72409-7.38879,9.27777c-2.84955,2.23157-6.20129,3.90411-10.05396,5.01526  c-3.79553,1.09473-8.04871,1.64294-12.75854,1.64294v-0.00806c-0.23529-0.00034-0.48169-0.00995-0.71643-0.00067v0.00485h-0.12903  c-19.27612,0.77197-32.99359,0.5889-40.5105,0h-12.24316c-22.30151,0-33.45044-9.56094-33.45044-28.68228v-28.79904h-44.64862  v46.98779c3.92358,0.18082,7.4906,0.74796,10.6991,1.70102c3.82922,1.13748,7.15814,2.81802,9.98511,5.04071  c3.33698,2.62369,5.84705,5.80679,7.52698,9.54712c1.6618,3.70105,2.49323,7.91064,2.49323,12.62805v105.96765  c0,4.68707-0.84033,8.87213-2.52124,12.55432c-1.69214,3.70776-4.22461,6.86725-7.59528,9.47552  c-2.90881,2.2514-6.3363,3.93518-10.27966,5.05151c-3.87939,1.0979-8.25073,1.64734-13.11212,1.64734h-53.10132  c-4.86108,0-9.23242-0.54944-13.11115-1.64734c-3.94336-1.11603-7.37012-2.80011-10.27905-5.05115  c-0.90399-0.69916-1.74731-1.43884-2.52899-2.21588c-0.19489-0.19342-0.38531-0.38928-0.57251-0.58777  c-0.20587,0.22192-0.41504,0.44006-0.62787,0.65326c-0.79993,0.80219-1.66382,1.56262-2.59027,2.27972  c-2.89679,2.24158-6.32422,3.90796-10.27966,4.99731c-3.32666,0.91614-7.02496,1.42029-11.09485,1.51251v0.05933h-55.11798  c-4.86139,0-9.23254-0.54944-13.11145-1.64734c-3.94336-1.11603-7.37012-2.80029-10.27875-5.05115  c-2.03088-1.57135-3.76025-3.34857-5.18738-5.3291c-0.52631-0.73029-1.01038-1.48651-1.45178-2.26819  c-0.44202,0.78204-0.92584,1.53827-1.45215,2.26849c-1.42731,1.98059-3.15686,3.75745-5.18774,5.3288  c-2.90863,2.25085-6.33582,3.93512-10.27911,5.05115c-3.87933,1.0979-8.25061,1.64734-13.11237,1.64734H375.3157  c-4.86163,0-9.23294-0.54944-13.11273-1.64734c-3.94351-1.11603-7.37012-2.80011-10.27896-5.05115  c-3.37042-2.60834-5.90256-5.76776-7.59558-9.47552c-1.68021-3.68195-2.52094-7.86743-2.52094-12.55469V486.36981  c0-4.71741,0.83109-8.92764,2.49332-12.62842c1.6795-3.7403,4.1889-6.92343,7.52655-9.54675  c2.91171-2.28976,6.34918-4.00275,10.31107-5.13925c3.89029-1.11533,8.28345-1.67377,13.17728-1.67377h1.90442  c-1.28741-1.67474-2.34274-3.54413-3.1651-5.6088c-1.4371-3.60605-2.15579-7.7757-2.15579-12.50867v-61.68271h-10.53983v-42.5661  c-0.92014,0.15005-1.86429,0.27396-2.83176,0.37186c-1.86978,0.18921-3.78723,0.28455-5.75137,0.28455h-86.40311V162.8857  c0-4.71017,0.82986-8.91315,2.48947-12.60829c1.677-3.73451,4.18277-6.91272,7.51523-9.53326  c2.90704-2.28552,6.33804-3.99622,10.29224-5.13031c3.88327-1.11395,8.26743-1.67081,13.15125-1.67081h158.86469  c9.86255,0,17.67819,2.267,23.44479,6.80112c0.87415,0.68718,1.70273,1.42554,2.48431,2.21388  c0.18661,0.18857,0.36966,0.37831,0.54916,0.57068c0.17889-0.19202,0.36157-0.38176,0.54785-0.56978  c0.78204-0.78889,1.61084-1.52725,2.48569-2.21478c2.90695-2.28517,6.33859-3.99622,10.29312-5.13031  c3.88318-1.11395,8.26712-1.67081,13.15063-1.67081h158.86627c3.6604,0,7.25775,0.56038,10.79028,1.68056  c1.66473,0.52794,3.32275,1.19397,4.97223,1.99677c1.57233,0.76498,3.16803,1.67827,4.78467,2.73782l0.20801,0.10399  l0.08484,0.05774c1.25696,0.85909,2.41632,1.76056,3.47766,2.70317l-0.00354,0.00407  c0.43829,0.38959,0.86029,0.78482,1.2652,1.18637c0.27374-0.32382,0.55658-0.64134,0.84912-0.95326  c0.86328-0.9216,1.80609-1.79065,2.82605-2.60464c2.79645-2.23297,6.11188-3.92244,9.94446-5.06725  c3.74921-1.12025,8.0127-1.71754,12.78906-1.79071c0.03357-0.00034,0.06281,0.00388,0.08856,0.01122  c0.25592-0.0437,0.54749-0.06584,0.87866-0.06584h19.24902V98.55439h67.15466v196.20706h-86.40369  c-4.6701,0-8.88947-0.49289-12.65674-1.47842c-2.48975-0.65164-4.77277-1.51675-6.849-2.59518v4.07361H545.09149v9.65475h19.12384  c4.88287,0,9.2674,0.55753,13.15063,1.67093c3.95416,1.13394,7.38586,2.84467,10.29279,5.12988  c0.87451,0.68762,1.703,1.42584,2.48468,2.21451c0.18665,0.18796,0.36908,0.37778,0.54828,0.56979  c0.17908-0.19202,0.36188-0.38184,0.54803-0.56979c0.7821-0.78867,1.61096-1.52725,2.48566-2.21478  c2.90704-2.28558,6.33838-3.99567,10.29224-5.12961c3.88293-1.11374,8.26733-1.67093,13.15155-1.67093h52.95496  c4.88458,0,9.26935,0.55719,13.15265,1.67093c3.95416,1.13361,7.38586,2.8443,10.29272,5.12961  c0.88605,0.69647,1.72614,1.44672,2.51941,2.24924c0.19482,0.19714,0.38562,0.39627,0.57288,0.59763  c0.16858-0.17957,0.3407-0.35706,0.51569-0.5325c0.776-0.77838,1.59552-1.50742,2.45801-2.18533  c2.86169-2.24948,6.26349-3.95093,10.20264-5.10251c3.76862-1.1022,8.03107-1.6937,12.78448-1.77402l0.13458-0.04462  c48.61084-0.04306,97.22296-0.03207,145.83417-0.04572v12.07941h52.69727v123.62869L921.23126,440.14481z M564.64923,601.85663  c-1.48724,4.37073-4.10962,8.01086-7.86859,10.91974c-5.40417,4.18213-12.79224,6.27313-22.16278,6.27313H375.3157  c-9.37082,0-16.75885-2.091-22.16306-6.27313c-6.21884-4.81293-9.32846-11.62555-9.32846-20.4389V486.36981  c0-8.88043,3.08231-15.74506,9.24789-20.59207c5.40796-4.25247,12.82339-6.37973,22.24362-6.37973h6.62231  c-5.34735-4.44333-8.02246-11.15384-8.02246-20.13385v-63.69952h-10.53943v-42.9841  c-3.19437,0.71609-6.72723,1.0744-10.59985,1.0744h-84.38666V162.8857c0-8.86571,3.07812-15.71909,9.23309-20.55836  c5.39862-4.24509,12.79892-6.36783,22.19864-6.36783h158.86469c9.40042,0,16.80051,2.12274,22.20007,6.36783  c1.64651,1.29416,3.07205,2.73297,4.27792,4.31514c1.20621-1.58217,2.63174-3.02098,4.2782-4.31514  c5.39935-4.24487,12.79962-6.36783,22.19937-6.36783h158.86627c3.45514,0,6.84991,0.52849,10.18372,1.58609  c3.14197,0.99649,6.26251,2.51517,9.36017,4.55563l0.16156,0.0809c2.3562,1.61086,4.36395,3.39354,6.02271,5.34854  c1.29443-1.88953,2.88727-3.58957,4.77844-5.09961c5.18774-4.14171,12.35681-6.28369,21.50488-6.42474  c2.00708-0.03015-0.52441-0.04681,0.94379-0.04681h21.26544v-35.38864h63.12158v192.17426h-84.38702  c-9.03052,0-16.20471-1.87805-21.52216-5.63156v5.63156H543.07465v13.6879h21.14069c9.3985,0,16.79938,2.12241,22.19873,6.36713  c1.64612,1.29431,3.07202,2.73264,4.27765,4.31458c1.20605-1.58221,2.63196-3.0206,4.2785-4.31476  c5.39899-4.2449,12.79926-6.36694,22.19897-6.36694h52.95496c9.40045,0,16.80139,2.12204,22.20068,6.36694  c1.66699,1.31018,3.10791,2.76886,4.32349,4.37451c1.19592-1.5527,2.60663-2.96765,4.23199-4.24548  c5.32867-4.1886,12.68915-6.34158,22.07825-6.45587l0.1214-0.0401l143.49469-0.04495v12.08701h52.69763v120.78909l-0.04053,0.04044  l-0.00189,0.39734c-0.10596,8.63324-3.1629,15.30322-9.16974,20.0069c-5.29822,4.1492-12.49103,6.22504-21.57581,6.22504  c-0.64508,0-0.78705-0.00162-0.71643-0.00421h-52.88269c-20.95685,0-31.43372-8.88846-31.43372-26.6655v-30.81552h-48.68176  v50.95477c9.04578,0.11603,16.19849,2.241,21.45593,6.37433c6.16528,4.84702,9.24847,11.7113,9.24847,20.59207v105.96765  c0,8.81268-3.11017,15.62561-9.32904,20.43854c-5.40442,4.18225-12.7926,6.2735-22.16284,6.2735h-53.10132  c-9.36981,0-16.75732-2.091-22.1615-6.27313c-1.67255-1.29456-3.11981-2.73383-4.34277-4.31805  c-1.24213,1.63715-2.71997,3.12024-4.43457,4.44708c-5.38391,4.16687-12.77203,6.20154-22.16217,6.10492v0.03918h-53.10132  c-9.36993,0-16.75739-2.091-22.16125-6.27313C568.75848,609.86719,566.13605,606.22705,564.64923,601.85663z"/>
<path class="st10" d="M479.38284,439.26416c0,11.04688-7.02655,16.48544-21.07996,16.31232h-52.95422  c-14.05362,0-21.07956-5.43753-21.07956-16.31232v-74.05307h-10.53946v-32.62543h10.53946v-16.06372h42.41583v16.06372h52.69791  v32.62543h-52.69791v57.74118h10.53979v-49.45609h42.15811V439.26416z M331.44046,179.19759H321.1575v70.56978h10.28296V179.19759z   M373.8562,306.98984c0,10.8732-7.02719,16.31198-21.07956,16.31198h-74.03351V290.6763h52.69733v-8.28473h-31.61911  c-14.3963,0-21.42215-5.43726-21.07822-16.31259V162.8857c0-11.04813,7.02588-16.57265,21.07822-16.57265h74.03485V306.98984z   M437.34958,179.19759h-10.28162v16.31267h10.28162V179.19759z M458.68604,318.50043c-4.79803,0-9.42511-1.46722-13.88095-4.40219  c-4.96927-3.4516-7.45551-7.42157-7.45551-11.90976V228.3932h-10.28162v75.91676h-42.41608V146.31305h74.03415  c14.05377,0,21.07996,5.52452,21.07996,16.57265v35.21391c0,6.55992-3.51364,11.13387-10.53949,13.72226  c7.02585,2.5899,10.53949,7.16393,10.53949,13.72392v66.8004h52.95526v18.63968h-0.12653v5.80035h31.62024  c14.05084,0,21.07898,5.52292,21.07898,16.57138v122.21887H542.8775V349.66931h-10.28278v105.90717H490.1799V318.50043H458.68604z   M543.26227,228.3932h-10.28455v21.37416h10.28455V228.3932z M511.6416,282.39157c-14.05237,0-21.07892-5.43726-21.07892-16.31259  v-54.25711c0-10.70171,7.02655-16.14006,21.07892-16.31161h31.62067v-16.31267h-10.28455v8.02759h-42.41504V162.8857  c0-11.04813,7.02655-16.57265,21.07892-16.57265h52.95526c14.05371,0,21.0799,5.52452,21.0799,16.57265v119.50587H511.6416z   M649.17169,282.39157V179.19759h-10.28314v103.19398H596.474V146.31305h42.41455v8.28633  c7.02588-5.52328,17.56689-8.28633,31.61896-8.28633c4.7995,0,9.42651,1.46724,13.8822,4.40247  c4.79755,3.27979,7.19751,7.33707,7.19751,12.17018v119.50587H649.17169z M755.08215,179.19759h-10.28284v70.56978h10.28284  V179.19759z M723.46313,282.39157c-14.39606,0-21.42224-5.43726-21.0802-16.31259V162.8857  c-0.17053-11.04813,6.85632-16.57265,21.0802-16.57265h31.61902v-35.38864h42.41479v171.46716H723.46313z M648.78827,349.66931  h-10.2829v16.31195h10.2829V349.66931z M691.20465,439.26416c0,10.87479-7.02655,16.31232-21.08014,16.31232h-52.95532  c-14.05267,0-21.07855-5.43753-21.07855-16.31232V333.3576c0-11.04846,7.02588-16.57138,21.07855-16.57138h52.95532  c14.05359,0,21.08014,5.52292,21.08014,16.57138v73.02359h-52.69928v16.57108h10.2829v-8.28598h42.41638V439.26416z   M744.4162,398.09509v57.48138h-42.41608V333.3576c0-10.87506,7.0274-16.3999,21.07983-16.57138h70.65002v32.88309H744.4162v8.02707  h49.31378v40.39871H744.4162z M407.02026,554.98029h-10.30994v21.00061h10.30994V554.98029z M375.3157,608.69598  c-14.09277,0-21.13803-5.45203-21.13803-16.35852v-56.89624c0-10.73248,7.04526-16.18341,21.13803-16.35687h31.70456v-16.35727  h-10.30994v8.0477h-42.53265v-24.40497c0-11.07791,7.04526-16.61795,21.13803-16.61795h53.10147  c14.09119,0,21.13632,5.54004,21.13632,16.61795v122.32617H375.3157z M555.75586,592.33746  c0,10.90649-7.04541,16.35852-21.138,16.35852h-53.10101c-14.09094,0-21.13641-5.45203-21.13641-16.35852v-122.5856h42.53125  V575.9809h10.31091V469.75186h42.53326V592.33746z M668.9176,592.33746c0,11.07861-7.04578,16.53094-21.1377,16.35852h-53.10132  c-14.09094,0-21.13605-5.45203-21.13605-16.35852v-81.56268h-10.57043v-32.71405h10.57043v-12.44861h42.53265v12.44861h52.84241  v32.71405H616.0752v65.20612h10.56793v-56.89655h42.27448V592.33746z M732.5874,502.72708h-10.31152v73.25381h10.31152V502.72708z   M908.86774,439.26416c0,11.04688-7.02655,16.48544-21.07996,16.31232h-52.95422c-14.05341,0-21.07959-5.43753-21.07959-16.31232  v-74.05307h-10.53943v-32.62543h10.53943v-16.06372h42.41571v16.06372h52.69806v32.62543h-52.69806v57.74118h10.53979v-49.45609  h42.15826V439.26416z M775.12061,592.33746c0,10.90649-7.04736,16.35852-21.13837,16.35852h-53.10168  c-14.09033,0-21.13611-5.45203-21.13611-16.35852V486.36981c0-11.07791,7.04578-16.61795,21.13611-16.61795h53.10168  c14.091,0,21.13837,5.54004,21.13837,16.61795V592.33746z"/>
<path class="st11" d="M795.89447,474.19196h0.97656c0.63263,0,1.02661-0.02731,1.18469-0.08066  c0.15668-0.05322,0.28131-0.14603,0.36987-0.27679c0.0896-0.13071,0.13367-0.29477,0.13367-0.49133  c0-0.22034-0.05945-0.39697-0.17639-0.53369c-0.11713-0.1355-0.2832-0.22034-0.49609-0.25537  c-0.10791-0.01541-0.42871-0.0231-0.96234-0.0231h-1.02997V474.19196z M801.28125,470.92218  c-0.96436-0.96448-2.29865-1.56174-3.77148-1.56174c-1.47296,0-2.80713,0.59726-3.77142,1.56174  c-0.96606,0.96307-1.56171,2.29672-1.56171,3.77142c0,1.47495,0.59564,2.80838,1.55908,3.77145l0.00262,0.00247  c0.96307,0.96344,2.29651,1.55945,3.77142,1.55945c1.47467,0,2.80841-0.59601,3.77148-1.55945  c0.96442-0.96692,1.56171-2.30093,1.56171-3.77393C802.84296,473.22083,802.24567,471.88651,801.28125,470.92218z   M797.50977,468.02417c1.84113,0,3.50873,0.74692,4.71564,1.95383c1.20685,1.20676,1.9538,2.87451,1.9538,4.71561  s-0.74695,3.50906-1.9538,4.71582c-1.20978,1.20657-2.8772,1.95361-4.71564,1.95361c-1.8385,0-3.50525-0.7467-4.71338-1.95361  l-0.0022-0.00247c-1.20715-1.2081-1.9538-2.87488-1.9538-4.71335c0-1.83859,0.74695-3.50589,1.95502-4.71436  C794.00073,468.77109,795.6687,468.02417,797.50977,468.02417z M794.57135,477.96078v-6.53381h2.77881  c0.69781,0,1.20587,0.05902,1.52216,0.1763c0.31836,0.11746,0.5708,0.32556,0.76056,0.62524  c0.19043,0.30127,0.28619,0.64325,0.28619,1.02957c0,0.49136-0.14337,0.8959-0.43079,1.21518  c-0.28741,0.31958-0.71613,0.52023-1.28802,0.6037c0.28448,0.16611,0.51868,0.34851,0.7027,0.54755  c0.18549,0.19949,0.43475,0.55399,0.74817,1.06177l0.79706,1.27451h-1.57715l-0.94604-1.42676  c-0.33911-0.50641-0.5719-0.82565-0.69812-0.95801c-0.12457-0.13062-0.25732-0.22214-0.39697-0.27066  c-0.1413-0.0488-0.36353-0.07294-0.6676-0.07294h-0.26782v2.72836H794.57135z"/>
</svg>